<mxfile host="app.diagrams.net" modified="2023-06-20T12:01:26.393Z" agent="Mozilla/5.0 (Windows NT 10.0; Win64; x64) AppleWebKit/537.36 (KHTML, like Gecko) Chrome/114.0.0.0 Safari/537.36" version="21.4.0" etag="vF20vNdyOtppVAeWzLF_" type="github">
  <diagram name="Page-1" id="vLhh3yerYi3Mmsl4roQH">
    <mxGraphModel>
      <root>
        <mxCell id="0" />
        <mxCell id="1" parent="0" />
      </root>
    </mxGraphModel>
  </diagram>
</mxfile>
